<?xml version="1.0" encoding="utf-8"?>
<!-- Generator: Adobe Illustrator 19.0.0, SVG Export Plug-In . SVG Version: 6.00 Build 0)  -->
<svg version="1.1" id="Layer_1" xmlns="http://www.w3.org/2000/svg" xmlns:xlink="http://www.w3.org/1999/xlink" x="0px" y="0px"
	 viewBox="-211 374.1 187.7 44.9" style="enable-background:new -211 374.1 187.7 44.9;" xml:space="preserve">
<style type="text/css">
	.st0{fill:#81B3D2;}
</style>
<g>
	<path class="st0" d="M-183.3,374.1h7.7l-1.2,44.9h-14.5l-2-18.5l-2,18.5h-14.6l-1.1-44.9h7.6l0.6,37.2h0.8l4.8-37.2h7.6l4.9,37.2
		h0.8L-183.3,374.1z"/>
	<path class="st0" d="M-151.4,411.2v7.8h-20.9v-44.9h20.9v7.7h-13.3v10.8h10.6v7.7h-10.6v10.9H-151.4z"/>
	<path class="st0" d="M-130.1,411.2v7.8h-18.3v-44.9h7.6v37.2H-130.1z"/>
	<path class="st0" d="M-113.9,402.4l7.7-1.8v13.6c0,2.6-2.2,4.7-4.7,4.7h-11.5c-2.6,0-4.7-2.2-4.7-4.7v-35.4c0-2.6,2.1-4.7,4.7-4.7
		h11.5c2.5,0,4.7,2.1,4.7,4.7v9.1l-7.7,1.8v-8h-5.5v29.5h5.5L-113.9,402.4L-113.9,402.4z"/>
	<path class="st0" d="M-85.4,374.1c2.5,0,4.7,2.1,4.7,4.7v35.4c0,2.6-2.2,4.7-4.7,4.7h-11.5c-2.6,0-4.7-2.2-4.7-4.7v-35.4
		c0-2.6,2.1-4.7,4.7-4.7H-85.4z M-88.4,381.8h-5.5v29.5h5.5V381.8z"/>
	<path class="st0" d="M-55.6,374.1h7.6V419h-7.6v-22.1l-3.1,11.4h-7.5l-3-11.4V419h-7.6v-44.9h7.6l6.8,21.7L-55.6,374.1z"/>
	<path class="st0" d="M-23.3,411.2v7.8h-20.9v-44.9h20.9v7.7h-13.3v10.8H-26v7.7h-10.6v10.9H-23.3z"/>
</g>
</svg>
