<?xml version="1.0" encoding="utf-8"?>
<!-- Generator: Adobe Illustrator 19.0.0, SVG Export Plug-In . SVG Version: 6.00 Build 0)  -->
<svg version="1.1" id="Layer_1" xmlns="http://www.w3.org/2000/svg" xmlns:xlink="http://www.w3.org/1999/xlink" x="0px" y="0px"
	 viewBox="-177 382.1 255.9 28.9" style="enable-background:new -177 382.1 255.9 28.9;" xml:space="preserve">
<style type="text/css">
	.st0{fill:#766357;}
</style>
<g>
	<path class="st0" d="M-113,396.5l-0.2,0.2c-1.4,1.5-3,2.2-4.5,2.2l2.8-4.9c1.8-3.1,0.1-6.1-2.7-6.1c-2.3,0-4.1,0.9-5.8,3.9
		l-1.5,2.6l-1.2,2.1l-0.2,0.2c-2.2,2.5-4.3,4.5-5.6,4.5c-0.7,0-1-0.5-0.3-1.6l6.4-11.2h2.4l0.9-1.4h-2.5l2.8-4.9h-3l-2.8,4.9h-2.7
		l-0.9,1.4h2.7l-6,10.4c-1.3,2.2-0.4,4.3,2,4.3c1.7,0,3.7-1.3,5.5-3.1c0,3.8,5.3,4.6,8.5,0.5h0.7c1.8,0,4.6-1.1,6.1-2.9
		C-112.1,397.2-112.6,396.7-113,396.5z M-119.4,396.7h-0.1c-1,0-1.8,0.8-1.8,1.8c0,0.4,0.1,0.7,0.3,1l0,0.1c-1.4,2.4-4.8,2-3.1-1.2
		l2.3-3.9l1.4-2.4c2.1-3.6,5-2.2,3.2,1L-119.4,396.7z"/>
	<path class="st0" d="M-71.5,396.5l-0.2,0.2c-2.2,2.5-4.9,4.5-7,4.5c-1.8,0-2.9-1.2-1.6-3.6l0.3-0.5c1.9,0.8,5.6,0.4,7.8-3.5
		l0.4-0.7c1.6-2.8,0.1-4.8-2.4-4.8c-2.4,0-4.3,1.3-5.6,3.5l-2.9,5l-0.2,0.2c-2.2,2.5-4.3,4.5-5.6,4.5c-0.7,0-1-0.5-0.3-1.6l4.3-7.6
		c1.3-2.3,0.1-3.9-1.6-3.9c-1.3,0-2.7,0.7-4.2,2.3l4.8-8.3h-3l-8.4,14.5l-0.2,0.2c-2.2,2.5-4.3,4.5-5.6,4.5c-0.7,0-1-0.5-0.3-1.6
		l6.4-11.2h2.4l0.9-1.4h-2.5l2.8-4.9h-3l-2.8,4.9h-2.7l-0.9,1.4h2.7l-6,10.4c-1.3,2.2-0.4,4.3,2,4.3c1.2,0,2.5-0.6,3.8-1.6l-0.8,1.3
		h3l4.5-7.9c4.6-5.8,6.7-5,5.4-2.8l-3.9,6.8c-1.3,2.2-0.4,4.3,2,4.3c1.8,0,3.8-1.4,5.6-3.2c0.1,1.9,1.7,3.2,4.1,3.2
		c3.4,0,6.8-2.6,9.2-5.5C-70.6,397.2-71.1,396.7-71.5,396.5z M-77.2,392.3c1.7-3,4.8-2.5,3,0.6l-0.4,0.7c-1.4,2.4-3.4,2.4-4.5,2
		L-77.2,392.3z"/>
	<path class="st0" d="M37.6,396.5l-0.2,0.2c-1.1,1.3-2.4,2.4-3.6,3.3c0.9-2.9,0.7-7.2,2.6-11.1l-2.2-1.2c-1.2,1.7-3.9,5.6-6.7,8.8
		l0,0l-0.2,0.2c-2.2,2.5-4.3,4.5-5.6,4.5c-0.7,0-1-0.5-0.3-1.6l6.4-11.2h-3l-5.3,9.3c-2.3,2.1-4,3.2-4.6,3c-0.7-0.3,0-1.4,0.4-2.1
		l5.8-10.2h-3l-4.7,8.1l-0.2,0.2c-1.4,1.5-3,2.2-4.5,2.2l2.8-4.9c1.8-3.1,0.1-6.1-2.7-6.1c-2.3,0-4.1,0.9-5.8,3.9l-1.5,2.6l-1.2,2.1
		l-0.2,0.2c-2.2,2.5-4.9,4.5-7,4.5c-1.8,0-2.9-1.2-1.6-3.6l0.3-0.5c1.9,0.8,5.6,0.4,7.8-3.5l0.4-0.7c1.6-2.8,0.1-4.8-2.4-4.8
		c-2.4,0-4.3,1.3-5.6,3.5l-2.9,5l-0.2,0.2c-2.5,2.9-4.6,4.7-7,5.7l6.7-11.5H-13c0-1.2-1.3-2.9-3.1-2.9c-1.6,0-3.9,1.3-5.1,3.5
		l-2.9,5c0,0,0,0,0,0l-0.2,0.2c-2.2,2.5-4.3,4.5-5.6,4.5c-0.7,0-1-0.5-0.3-1.6l3-5.2c1-1.8,0.5-2.9-0.4-4.1l-1.7-2
		c-0.4-0.5-0.4-1.2,0.2-1.7l-1.6-1.7c-1.7,1.5-1.8,3.2-0.8,4.6l0.3,0.3c-1.3,1.9-3.1,4.4-5.1,6.7l0,0l-0.2,0.2
		c-1.4,1.5-3,2.2-4.5,2.2l2.8-4.9c1.8-3.1,0.1-6.1-2.7-6.1c-2.3,0-4.1,0.9-5.8,3.9l-1.5,2.6l-1.2,2.1l-0.2,0.2
		c-2.5,2.9-4.6,4.7-7,5.7l6.7-11.5h-1.8c0-1.2-1.3-2.9-3.1-2.9c-1.6,0-3.9,1.3-5.1,3.5l-4.2,7.3c-1.3,2.2-0.4,4.3,2,4.3
		c0.8,0,1.8-0.4,2.9-1l-0.8,1.4c-4,1.2-6.6,2.9-6.6,5.1c0,2.9,4.4,3.5,6.6-0.2l2.3-3.9c2.4-0.7,4.7-2.2,7.2-4.5
		c0,3.8,5.3,4.6,8.5,0.5h0.7c1.8,0,4.6-1.1,6.1-2.9l0,0c1.4-1.7,2.6-3.2,5-6.4l0.4,0.5c0.4,0.5,0.5,1.1,0.2,1.7l-3.2,5.5
		c-1.3,2.2-0.4,4.3,2,4.3c1.5,0,3.2-1,4.8-2.4c0,1.4,0.9,2.4,2.6,2.4c0.8,0,1.8-0.4,2.9-1l-0.8,1.4c-4,1.2-6.6,2.9-6.6,5.1
		c0,2.9,4.4,3.5,6.6-0.2l2.3-3.9c2.4-0.8,4.8-2.2,7.3-4.6c0.1,1.9,1.6,3.2,4.1,3.2c2.4,0,4.9-1.4,6.9-3.2c-0.1,3.9,5.3,4.7,8.5,0.6
		h0.7c0.9,0,2.2-0.3,3.3-0.9c-0.8,2.1-0.1,3.5,1.6,3.5c1.6,0,3.5-1.5,4.9-2.9c-0.3,1.6,0.7,2.9,2.6,2.9c2.5,0,5.3-2.6,7.8-5.5l0,0
		c1.7-2,3.2-4.1,4.3-5.5c-1.2,3.1-0.5,8.7-3.4,8.7c-1,0-1.4-1.1-1.4-1.1l-1.9,1c0,0,0.5,2.4,3.3,2.4c0.3,0,0.5,0,0.8-0.1
		c0,0,0.1,0,0.1,0c3.1-0.4,6.1-2.8,8.3-5.4C38.6,397.1,38.1,396.7,37.6,396.5z M-5.4,392.3c1.7-3,4.8-2.5,3,0.6l-0.4,0.7
		c-1.4,2.4-3.4,2.4-4.5,2L-5.4,392.3z M-62.5,407.9c-0.6,1.1-1.6,1-1.6,0.1c0-0.8,0.7-1.7,3-2.6L-62.5,407.9z M-61.2,401.3
		c-0.7,0-1-0.5-0.3-1.6l4.2-7.3c1.6-2.8,4.8-2.1,3.3,0.6l-2.3,4C-58.1,399.9-59.9,401.3-61.2,401.3z M-42.8,396.7h-0.1
		c-1,0-1.8,0.8-1.8,1.8c0,0.4,0.1,0.7,0.3,1l0,0.1c-1.4,2.4-4.8,2-3.1-1.2l2.3-3.9l1.4-2.4c2.1-3.6,5-2.2,3.2,1L-42.8,396.7z
		 M-23.9,407.9c-0.6,1.1-1.6,1-1.6,0.1c0-0.8,0.7-1.7,3-2.6L-23.9,407.9z M-22.5,401.3c-0.7,0-1-0.5-0.3-1.6l4.2-7.3
		c1.6-2.8,4.8-2.1,3.3,0.6l-2.3,4C-19.5,399.9-21.3,401.3-22.5,401.3z M7,396.7H6.8c-1,0-1.8,0.8-1.8,1.8c0,0.4,0.1,0.7,0.3,1l0,0.1
		c-1.4,2.4-4.8,2-3.1-1.2l2.3-3.9l1.4-2.4c2.1-3.6,5-2.2,3.2,1L7,396.7z"/>
</g>
<rect x="-177" y="393.4" class="st0" width="28.9" height="2"/>
<rect x="50" y="393.4" class="st0" width="28.9" height="2"/>
</svg>
