<svg xmlns="http://www.w3.org/2000/svg" viewBox="-274 359.9 63 75.1"><path d="M-214 382.1H-238.4c13.6-6.8 14.7-11.1 14.2-13.5-1.1-3.9-5.6-6.9-9.8-5.3-5.5 2.1-7 10.3-8.5 16.2-1.9-6-3.7-13.6-8-17.5-1.2-1.1-3-2.2-5.7-2-4 .4-9.7 5.3-7.3 10.8 2.2 5.3 9.5 8.7 14.4 11.4h-22.1c-1.6 0-2.8 1.3-2.8 2.8v11.2c0 1.6 1.3 2.8 2.8 2.8h.3v36h57v-36h.1c1.6 0 2.8-1.3 2.8-2.8V385c-.2-1.6-1.5-2.9-3-2.9zm-18.4-16.3c2.1-.3 4.9 1.3 5.2 3.2.4 2.7-3.3 5.2-5 6.3-2.5 1.7-4.9 2.6-7.2 4 .8-3.6 2.5-12.8 7-13.5zm-22.6 9.8c-2.2-1.5-6.4-4.4-6.3-7.7.1-3.6 5.7-6.5 8.7-3.8 3.8 3.3 5.6 11 7 16.4-3.2-1.5-6.2-2.8-9.4-4.9zm5.9 56.5h-19.1V399h19.1v33.1zm0-36.1h-22.1v-10.9h22.1V396zm10 0v36.1h-7.1v-47h7.1V396zm22 36.1h-19.1V399h19.1v33.1zm2.9-36.1h-21.9v-10.9h21.9V396z"/></svg>