<svg id="Layer_1" xmlns="http://www.w3.org/2000/svg" viewBox="-295 386.1 19.9 21.9"><style>.st0{fill:#81b3d2}</style><path class="st0" d="M-278 388.1h-2.1v-2h-2v2h-6v-2h-2v2h-2.1c-1.6 0-2.8 1.3-2.8 2.8v14.2c0 1.6 1.3 2.8 2.8 2.8h14.2c1.6 0 2.8-1.3 2.8-2.8v-14.2c.1-1.5-1.2-2.8-2.8-2.8zm.9 17.1c0 .5-.4.8-.8.8h-14.2c-.5 0-.8-.4-.8-.8V391c0-.5.4-.8.8-.8h14.2c.5 0 .8.4.8.8v14.2z"/><path class="st0" d="M-290.1 393h2v2h-2zM-282 393h2v2h-2zM-286.1 393h2v2h-2zM-290.1 397h2v2h-2zM-282 397h2v2h-2zM-286.1 397h2v2h-2zM-290.1 401h2v2h-2zM-282 401h2v2h-2zM-286.1 401h2v2h-2z"/></svg>