<svg id="Layer_1" xmlns="http://www.w3.org/2000/svg" viewBox="-268 360.7 74.7 72.3"><style>.st0{fill:#81b3d2}</style><path class="st0" d="M-238.5 404.5v21.6h16V402.1h-16v2.4zm13.1 18.6h-10.1V405h10.1v18.1z"/><path class="st0" d="M-195.4 400.1l2.1-2.1-9.9-9.9v-27H-216.9v13.2l-13.6-13.6L-268 398l2.1 2.1 7.8-7.8v37.8h-3.9v2.9h63.9v-2.9h-5.1v-37.8l7.8 7.8zm-18.7-36h7.9v21.1l-7.9-7.9v-13.2zm8 66h-49v-40.7l24.5-24.5 24.5 24.5v40.7z"/><path class="st0" d="M-238.2 387.9c0 4.3 3.5 7.8 7.7 7.8s7.8-3.5 7.8-7.8-3.5-7.8-7.8-7.8-7.7 3.5-7.7 7.8zm7.7-5c2.7 0 5 2.2 5 5s-2.2 5-5 5c-2.7 0-5-2.2-5-5s2.3-5 5-5zM-251.1 402.1h3v3.9h-3zM-245.2 402.1h3v3.9h-3zM-251.1 408.1h3v3.9h-3zM-245.2 408.1h3v3.9h-3zM-219.2 402.1h3v3.9h-3zM-213.2 402.1h3v3.9h-3zM-219.2 408.1h3v3.9h-3zM-213.2 408.1h3v3.9h-3z"/></svg>