<svg id="Layer_1" xmlns="http://www.w3.org/2000/svg" viewBox="-292 382.1 26 29.9"><style>.st0{fill:#81b3d2}</style><path class="st0" d="M-292 382.1h26V412l-13-4.8-13 4.8v-29.9zm20.2 17.9h-.8c-.3 0-.5-.1-.6-.1-.2-.1-.4-.3-.5-.5-.1-.2-.2-.5-.2-.9s0-1.2.1-2.5c0-1.2.1-2.3.1-3.2 0-.9-.1-1.6-.4-2.1-.3-.5-.7-.9-1.2-1.2-.5-.3-1.1-.5-1.8-.6-.6-.1-1.4-.1-2.1-.1-.6 0-1.2.1-1.8.2-.7.1-1.2.3-1.7.6-.5.2-.9.5-1.3.9s-.5.8-.5 1.2c0 .5.2.9.5 1.3.3.3.9.5 1.5.5.5 0 .8 0 1.1-.1.2-.1.4-.2.6-.4.1-.1.2-.3.3-.5.1-.2.1-.4.1-.5 0-.3-.1-.6-.2-1-.1-.3-.2-.6-.2-.7.1-.1.3-.2.6-.3.2-.1.5-.2.9-.2s.7.1 1 .3c.2.2.4.4.5.7.1.2.2.5.2.8v2c-.5.2-1.2.5-2.2.8-1 .3-1.9.6-2.6.8-.4.1-.7.3-1 .5-.3.2-.6.4-.8.6-.3.3-.5.6-.6 1-.1.4-.2.8-.2 1.3 0 .9.3 1.6 1 2.2.7.6 1.5.8 2.4.8.6 0 1.1 0 1.5-.1.4-.1.7-.2 1.1-.4.3-.1.6-.3.8-.5.3-.2.5-.4.8-.7h.1c.2.5.5 1 .9 1.3.5.3 1.2.4 2.2.4.5 0 1-.1 1.5-.2s.9-.3 1.3-.4l-.4-1zm-6.1-1.3c-.2.3-.5.5-.8.7-.3.2-.6.3-1.1.3-.4 0-.8-.1-1.1-.4-.3-.3-.4-.7-.4-1.4 0-.5.1-.9.3-1.2.2-.3.4-.6.7-.9.3-.2.6-.4 1.1-.6.4-.2.9-.4 1.3-.5v4z"/></svg>