<svg id="Layer_1" xmlns="http://www.w3.org/2000/svg" viewBox="-158 357.6 293.8 79.4"><style>.st0{fill:#fff}</style><path class="st0" d="M-124.6 374.7c7.7-2.6 8.2-12.2.7-12.2-2.1 0-4.6 1.5-6.3 4.4l-10.2 17.7c-.5.8-.9 1.5-1.5 2.2-2.6-3.6-1.9-9 1.8-11.4l-1.5-1.9c-7.9 5.1-5.6 19.7 7.7 19.7 11.4-.1 16.6-13.7 9.3-18.5zm-9.4 15.5c-2.3 0-4-.5-5.5-1.3.7-.8 1.3-1.7 1.9-2.7l6.4-11.1 1 .1c9 1.9 5.4 15-3.8 15zm4.1-17.3l3.1-5.3c2.8-4.8 6.3-2 4.4 1.6-1.5 2.8-3.6 3.6-7.5 3.7z"/><path class="st0" d="M-92.5 386.9c-.6 2.2.6 4.1 3.1 4.1 1.5 0 3.4-1 5.3-2.5.2 1.5 1.3 2.5 3.3 2.5 2 0 4.2-1.4 6.4-3.4-.4 2 .5 3.4 2.4 3.4 2.1 0 4.4-1.9 6.2-3.6-.4 2 .8 3.6 3.2 3.6 3.1 0 6.7-3.4 9.9-7 0 0-.1-.1-.1-.2 2.1-2.4 3.9-5 5.3-6.8-1.5 3.9-.7 11-4.3 11-1.3 0-1.8-1.4-1.8-1.4l-2.4 1.2s.7 3.1 4.2 3.1c.4 0 .7 0 1.1-.1h.1c2.8-.4 5.6-2.1 7.9-4.2.1 2.5 2 4.3 5.1 4.3 4.3 0 8.6-3.4 11.7-7-.3-.5-.9-1.1-1.4-1.3l-.3.3c-2.7 3.2-6.2 5.7-8.9 5.7-2.3 0-3.7-1.5-2-4.5l.4-.7c2.4 1 7 .5 9.9-4.4l.5-.9c2-3.5.1-6.1-3-6.1s-5.5 1.6-7.1 4.4l-3.7 6.3h-.1l-.3.3c-1.4 1.6-3.1 3.1-4.6 4.1 1.2-3.6.9-9.2 3.3-14l-2.8-1.5c-1.6 2.2-5 7.1-8.4 11.1l.1.1-.1.2c-2.7 3.2-5.4 5.7-7.1 5.7-.8 0-1.3-.6-.4-2.1l8.1-14.2h-3.8l-6.7 11.8c-2.9 2.6-5.1 4.1-5.8 3.8-.9-.4 0-1.8.5-2.6l7.4-12.9H-66l-6 10.4c-.1-.1-.2-.1-.3-.2l-.3.3c-2.7 3.2-5.4 5.7-7.1 5.7-.8 0-1.3-.6-.4-2.1l6.1-10.7h-2.2c.1-1.6-1.5-3.8-4-3.8-2 0-4.9 1.6-6.5 4.4l-3.8 6.6c-.2-.2-.4-.3-.6-.4l-.3.3c-2.7 3.2-6.2 5.7-8.9 5.7-2.3 0-3.7-1.5-2-4.5l3.9-6.8c2.2-3.8 6.1-3.1 3.8.8l-.5.9h3.1l.5-.9c2-3.5.1-6.1-3-6.1s-5.5 1.6-7.1 4.4l-3.8 6.5c-.1-.1-.2-.1-.3-.2l-.3.3c-2.7 3.2-6.2 5.7-8.9 5.7-2.3 0-3.7-1.5-2-4.5l.4-.7c2.4 1 7 .5 9.9-4.4l.5-.9c2-3.5.1-6.1-3-6.1s-5.5 1.6-7.1 4.4l-4 6.8c-2.4 4-.3 7.8 4.2 7.8 3.3 0 6.7-2 9.4-4.6-.1 2.6 1.9 4.6 5.1 4.6 3.3-.2 6.3-1.9 9-4.3zm58-9.5c2.2-3.8 6.1-3.1 3.8.8l-.5.9c-1.8 3.1-4.3 3-5.7 2.5l2.4-4.2zm-54.2 9.2l5.3-9.2c2-3.5 6.1-2.6 4.2.8l-3 5.2c-2.3 3.6-4.6 5.3-6.1 5.3-.8 0-1.2-.6-.4-2.1zm-24.1-9.2c2.2-3.8 6.1-3.1 3.8.8l-.5.9c-1.8 3.1-4.3 3-5.7 2.5l2.4-4.2zM15.7 391c4.3 0 8.6-3.4 11.7-7-.3-.5-.9-1.1-1.4-1.3l-.3.3c-2.7 3.2-6.2 5.7-8.9 5.7-2.3 0-3.7-1.5-2-4.5l.4-.7c2.4 1 7 .5 9.9-4.4l.5-.9c2-3.5.1-6.1-3-6.1s-5.5 1.6-7.1 4.4l-3.7 6.3s-.1 0-.1-.1l-.3.3c-2.7 3.2-5.4 5.7-7.1 5.7-.8 0-1.3-.6-.4-2.1l5.5-9.6c1.6-2.9.1-5-2-5-1.6 0-3.4.9-5.3 2.9l6.1-10.5H4.4L-6.3 383c-.1-.1-.3-.2-.4-.3l-.3.3c-2.7 3.2-5.4 5.7-7.1 5.7-.8 0-1.3-.6-.4-2.1l8.1-14.2h3.1l1.1-1.8h-3.1l3.6-6.2h-3.8l-3.6 6.2h-3.4l-1.1 1.8h3.5l-7.6 13.2c-1.6 2.8-.5 5.4 2.6 5.4 1.9 0 3.9-1.2 6-3l-1.5 2.6h3.8l5.8-10c5.8-7.3 8.4-6.4 6.8-3.6l-4.9 8.6c-1.6 2.8-.5 5.4 2.6 5.4 2.3 0 4.9-1.8 7.3-4.2-.1 2.4 1.8 4.2 4.9 4.2zm3.1-13.6c2.2-3.8 6.1-3.1 3.8.8l-.5.9c-1.8 3.1-4.3 3-5.7 2.5l2.4-4.2zM130.8 382.7l-.3.3c-2.7 3.2-5.4 5.7-7.1 5.7-.8 0-1.3-.6-.4-2.1l12.8-22.2H132l-5.6 9.6c-.7-1.1-1.9-2-3.5-2-2 0-4.9 1.6-6.5 4.4l-3.7 6.4c-.1 0-.2-.1-.2-.1l-.3.3c-2.7 3.2-5.4 5.7-7.1 5.7-.8 0-1.3-.6-.4-2.1l5.5-9.6c1.6-2.9.1-5-2-5-1.6 0-3.4.9-5.3 2.8l1.4-2.5h-3.8l-6.1 10.5c-.1-.1-.2-.2-.4-.2l-.3.3c-2.7 3.2-5.4 5.7-7.1 5.7-.8 0-1.3-.6-.4-2.1l6.1-10.7h-2.2c.1-1.6-1.5-3.8-4-3.8-2 0-4.9 1.6-6.5 4.4l-3.7 6.3.1.3c-2.7 3.2-5.4 5.7-7.1 5.7-.8 0-1.3-.6-.4-2.1l3.8-6.6c1.3-2.3.7-3.6-.5-5.1l-2.1-2.6c-.5-.7-.5-1.5.2-2.2l-2-2.2c-2.2 1.9-2.3 4.1-1 5.8l.3.4c-1.7 2.4-3.9 5.6-6.4 8.5l.3.3c-3.1 3.6-5.8 5.9-8.8 7.2l4.8-8.2h-3.8l-.4.7c-2 3.5-4.3 6.1-7.3 6.1-2.6 0-3.1-2.6-.8-6.5l1.1-1.9c.7.1 1.4.2 2.2.2 13.5 0 20-18.1 8.1-18.1-2.1 0-4.6 1.5-6.3 4.4L44 377.1c-2.2-1.2-3.4-3.3-3.4-5.4 0-1.8.8-3.5 2.4-4.8l-1.2-2.2c-2.7 1.9-3.9 4.5-3.9 7.1 0 3 1.7 5.9 4.8 7.5l-1.1 2c-2.7 4.6-2.2 9.7 3.2 9.7 1.6 0 3-.5 4.1-1.2l-1 1.7c-5.1 1.6-8.3 3.6-8.3 6.5 0 3.6 5.6 4.4 8.3-.3l2.9-5c3.9-1.2 7.8-3.9 12-8.8-.1-.1-.1-.2-.2-.4 1.7-2 3.1-3.9 6-7.8l.5.6c.5.6.7 1.4.2 2.2l-4 7c-1.6 2.8-.5 5.4 2.6 5.4 1.9 0 4-1.2 6-3 0 1.7 1.1 3 3.3 3 1.5 0 3.4-1 5.3-2.5.2 1.5 1.4 2.5 3.3 2.5 1.8 0 3.8-1.1 5.7-2.8l-1.4 2.4h3.8l5.8-10.1c5.8-7.3 8.4-6.3 6.7-3.5l-4.9 8.6c-1.6 2.8-.5 5.4 2.6 5.4 2 0 4.2-1.4 6.4-3.3-.2 1.9 1 3.3 3.3 3.3 1.5 0 3.4-1 5.3-2.5.2 1.5 1.4 2.5 3.3 2.5 3.1 0 6.7-3.4 9.9-7-.4-.4-1-1-1.5-1.2zm-78-14.2c1.1-1.9 2.4-2.8 3.4-2.8 6 0 1.8 12.3-8.1 12.3h-.8l5.5-9.5zm-8.1 28.6c-.8 1.4-2.1 1.2-2.1.2s.9-2.1 3.8-3.2l-1.7 3zm39.7-13.8c-2.3 3.6-4.6 5.3-6.1 5.3-.8 0-1.3-.6-.4-2.1l5.3-9.2c2-3.5 6.1-2.6 4.2.8l-3 5.2zm36.7-.2c-2.3 3.8-4.6 5.5-6.2 5.5-.8 0-1.3-.6-.4-2.1l5.3-9.2c2-3.5 6.1-2.6 4.2.8l-2.9 5zM4.1 418.7l-.3.3c-2.7 3.2-5.4 5.7-7.1 5.7-.8 0-1.3-.6-.4-2.1l5.5-9.6c1.6-2.9.1-5-2-5-1.6 0-3.4.9-5.3 2.8l1.4-2.5h-3.8L-14 419c-.2-.1-.3-.2-.5-.3l-.3.3c-1.7 1.9-3.8 2.8-5.7 2.8l3.6-6.2c2.3-4 .2-7.7-3.4-7.7-2.9 0-5.2 1.2-7.4 5l-1.9 3.2-1.6 2.8c-.1-.1-.2-.1-.3-.2l-.3.3c-3.1 3.6-5.8 5.9-8.8 7.2l10.4-17.8H-34l-6.7 11.7c-2.9 2.7-5.2 4.2-5.9 3.9-.9-.4 0-1.8.5-2.6l7.4-12.9h-3.8l-6.1 10.5c-.1-.1-.2-.1-.3-.2l-.3.3c-2.7 3.2-5.4 5.7-7.1 5.7-.8 0-1.3-.6-.4-2.1l5.5-9.6c1.6-2.9.1-5-2-5-1.6 0-3.4.9-5.3 2.8l1.4-2.5h-3.8l-6.1 10.5c-.1-.1-.2-.2-.4-.2l-.3.3c-2.7 3.2-5.4 5.7-7.1 5.7-.8 0-1.3-.6-.4-2.1l6.1-10.7H-71c.1-1.6-1.5-3.8-4-3.8-2 0-4.9 1.6-6.5 4.4l-3.9 6.8c-.3-.2-.6-.4-.8-.5l-.3.3c-2.7 3.2-6.1 5.7-9.8 5.7-2.6 0-4.2-2.6-1.9-6.5l1.1-1.9c.7.1 1.4.2 2.2.2 4 0 8.6-2.1 11.6-7.3 1.1-1.9 1.5-3.6 1.5-5.1 0-3.4-2.2-5.7-5-5.7-2.1 0-4.6 1.5-6.3 4.4l-5.9 10.2c-2.2-1.2-3.4-3.3-3.4-5.4 0-1.8.8-3.5 2.4-4.8l-1.2-2.2c-2.7 1.9-3.9 4.5-3.9 7.1 0 3 1.7 5.9 4.8 7.5l-1.1 2c-2.7 4.6-1.1 9.7 4.3 9.7 4.2 0 7.4-1.9 10-4.4-.8 2.4.4 4.4 3.1 4.4 1.5 0 3.4-1 5.3-2.5.2 1.5 1.3 2.5 3.3 2.5 1.8 0 3.8-1.1 5.7-2.8l-1.4 2.4h3.8l5.8-10.1c5.8-7.3 8.4-6.3 6.7-3.5l-4.9 8.6c-1.6 2.8-.5 5.4 2.6 5.4 2 0 4.3-1.4 6.5-3.4-.5 2.1.5 3.4 2.4 3.4 1.8 0 3.9-1.5 5.6-3.1l-2.1 3.6c-5.1 1.5-8.4 3.6-8.4 6.5 0 3.6 5.6 4.4 8.3-.3l2.9-5c3.2-1 6.3-3 9.6-6.2-.5 5.3 6.5 6.5 10.8 1.1h.8c1.4 0 3.3-.5 5-1.5l-2.5 4.4h3.8l5.8-10.1c5.8-7.3 8.4-6.3 6.7-3.5l-4.9 8.6c-1.6 2.8-.5 5.4 2.6 5.4s6.7-3.4 9.9-7c-.5-.4-1.1-1-1.6-1.2zm-94.4-14.2c1.1-1.9 2.4-2.8 3.4-2.8 1.4 0 2.1.9 2.1 2.3 0 3.5-4.3 9.9-10.2 9.9h-.8l5.5-9.4zm13.3 14.8c-2.3 3.6-4.6 5.3-6.1 5.3-.8 0-1.3-.6-.4-2.1l5.3-9.2c2-3.5 6.1-2.6 4.2.8l-3 5.2zm28.9 13.8c-.8 1.4-2.1 1.2-2.1.2s.9-2.1 3.8-3.2l-1.7 3zm25.5-14.2h-.2c-1.2 0-2.2 1-2.2 2.3 0 .5.1.9.4 1.3v.1c-1.8 3.1-6.1 2.5-3.9-1.5l2.9-5 1.8-3.1c2.7-4.5 6.3-2.7 4 1.2l-2.8 4.7zM92 420c-.2-.6-.9-1.2-1.4-1.3l-.3.3c-1.4 1.6-3.1 3.1-4.6 4.1 1.2-3.6.9-9.2 3.3-14l-2.8-1.5c-1.6 2.2-5 7.1-8.4 11.1l-.3.3c-2.7 3.2-5.4 5.7-7.1 5.7-.8 0-1.6-.8-1.6-2.6v-1.6c2.7.3 5.5-1.4 7.3-4.5l1-1.8c3.5-6.1-2.2-8.1-6.1-4.5l5.4-9.4h-3.8l-10.8 18.8c-.2-.2-.5-.4-.7-.5l-.3.3c-2.7 3.2-6.2 5.7-8.9 5.7-2.3 0-3.7-1.5-2-4.5l3.9-6.8c2.2-3.8 6.1-3.1 3.8.8l-.5.9h3.1l.5-.9c2-3.5.1-6.1-3-6.1s-5.5 1.6-7.1 4.4l-3.7 6.4c-.1 0-.2-.1-.2-.1l-.3.3c-2.7 3.2-5.4 5.7-7.1 5.7-.8 0-1.3-.6-.4-2.1l8.1-14.2h-3.8l-6.7 11.8c-2.9 2.6-5.1 4.1-5.8 3.8-.9-.4 0-1.8.5-2.6l7.4-12.9h-3.8l-7.4 12.7c-.8.7-1.7 1.4-2.4 2 1.2-3.6.9-9.2 3.3-14l-2.8-1.5c-1.6 2.2-10.3 13.8-13.7 17.8.3.5.9.9 1.4 1.3 2.2-2.5 9.4-11.8 10.7-13.6-1.5 3.9-.7 11-4.3 11-1.3 0-1.8-1.4-1.8-1.4l-2.4 1.2s.7 3.1 4.2 3.1c.4 0 .7 0 1.1-.1h.1c1.9-.3 3.8-1.1 5.6-2.4 0 1.5.9 2.5 2.5 2.5 2.1 0 4.4-1.9 6.2-3.6-.4 2 .8 3.6 3.2 3.6 2.4 0 5-1.9 7.5-4.4 0 2.5 2 4.4 5.1 4.4 3.1 0 6.1-1.7 8.8-4l-2.1 3.7h3.8l4.3-7.5v3c0 3.2.6 4.9 3.7 4.9s6.7-3.4 9.9-7c2.2-2.5 4-5.1 5.4-6.9-1.5 3.9-.7 11-4.3 11-1.3 0-1.8-1.4-1.8-1.4l-2.4 1.2s.7 3.1 4.2 3.1c.4 0 .7 0 1.1-.1h.1c3.7-.7 7.5-3.8 10.4-7.1zm-25.2-3l1.1-1.9c4.4-6.1 7.4-4.4 6-2.1l-1.8 3.1c-1.2 2-4.5 3.4-5.3.9zM91.8 422.6c-1.2 0-2.2 1-2.2 2.2 0 1.2.9 2.2 2.2 2.2s2.2-.9 2.2-2.2c0-1.2-.9-2.2-2.2-2.2zM92 421.1h3.8l11.9-20.7h-3.8z"/><g><path class="st0" d="M-152.3 364.5c0 .3-.1.6-.2.9-.1.3-.3.6-.5.8-.2.2-.5.4-.8.6-.3.1-.7.2-1.1.2-.5 0-.9-.1-1.3-.3-.4-.2-.8-.4-1.1-.7-.2-.3-.4-.6-.6-1-.1-.4-.2-.8-.2-1.3 0-.9.2-1.6.5-2.4.3-.7.7-1.4 1.3-1.9.2-.2.5-.5.8-.7.3-.2.6-.4.9-.5.3-.1.5-.3.7-.4.2-.1.3-.1.4-.2l1.4 2c-.2.1-.5.2-.8.4-.3.1-.6.3-.9.5-.3.2-.5.5-.7.8-.2.3-.3.6-.3 1 .7 0 1.2.2 1.7.6.6.3.8.9.8 1.6zm7.9 0c0 .3-.1.6-.2.9-.1.3-.3.6-.5.8-.2.2-.5.4-.8.6-.3.1-.7.2-1.1.2-.5 0-.9-.1-1.3-.3s-.8-.4-1.1-.7c-.2-.3-.4-.6-.6-1s-.2-.8-.2-1.3c0-.9.2-1.6.5-2.4.3-.7.7-1.4 1.3-1.9.2-.2.5-.5.8-.7.3-.2.6-.4.9-.5.3-.1.5-.3.7-.4.2-.1.3-.1.4-.2l1.4 2c-.2.1-.5.2-.8.4-.3.1-.6.3-.9.5-.3.2-.5.5-.7.8-.2.3-.3.6-.3 1 .7 0 1.2.2 1.7.6.6.3.8.9.8 1.6z"/></g><g><path class="st0" d="M120.8 423.4c0-.3.1-.6.2-.9.1-.3.3-.6.5-.8.2-.2.5-.4.8-.6.3-.1.7-.2 1.1-.2.5 0 .9.1 1.3.3.4.2.8.4 1.1.7.2.3.4.6.6 1 .1.4.2.8.2 1.3 0 .9-.2 1.6-.5 2.4-.3.7-.7 1.4-1.3 1.9-.2.2-.5.5-.8.7-.3.2-.6.4-.9.5-.3.1-.5.3-.7.4-.2.1-.3.1-.4.2l-1.4-2c.2-.1.5-.2.8-.4s.6-.3.9-.5c.3-.2.5-.5.7-.8.2-.3.3-.6.3-1-.7 0-1.2-.2-1.7-.6-.6-.3-.8-.8-.8-1.6zm-7.9 0c0-.3.1-.6.2-.9.1-.3.3-.6.5-.8s.5-.4.8-.6c.3-.1.7-.2 1.1-.2.5 0 .9.1 1.3.3.4.2.8.4 1.1.7.2.3.4.6.6 1 .1.4.2.8.2 1.3 0 .9-.2 1.6-.5 2.4-.3.7-.7 1.4-1.3 1.9-.2.2-.5.5-.8.7-.3.2-.6.4-.9.5-.3.1-.5.3-.7.4-.2.1-.3.1-.4.2l-1.4-2c.2-.1.5-.2.8-.4.3-.1.6-.3.9-.5.3-.2.5-.5.7-.8.2-.3.3-.6.3-1-.7 0-1.2-.2-1.7-.6-.5-.3-.8-.8-.8-1.6z"/></g></svg>