<svg id="Layer_1" xmlns="http://www.w3.org/2000/svg" viewBox="-211 374.1 187.7 44.9"><style>.st0{fill:#81b3d2}</style><path class="st0" d="M-183.3 374.1h7.7l-1.2 44.9h-14.5l-2-18.5-2 18.5h-14.6l-1.1-44.9h7.6l.6 37.2h.8l4.8-37.2h7.6l4.9 37.2h.8l.6-37.2zM-151.4 411.2v7.8h-20.9v-44.9h20.9v7.7h-13.3v10.8h10.6v7.7h-10.6v10.9h13.3zM-130.1 411.2v7.8h-18.3v-44.9h7.6v37.2h10.7zM-113.9 402.4l7.7-1.8v13.6c0 2.6-2.2 4.7-4.7 4.7h-11.5c-2.6 0-4.7-2.2-4.7-4.7v-35.4c0-2.6 2.1-4.7 4.7-4.7h11.5c2.5 0 4.7 2.1 4.7 4.7v9.1l-7.7 1.8v-8h-5.5v29.5h5.5v-8.8zM-85.4 374.1c2.5 0 4.7 2.1 4.7 4.7v35.4c0 2.6-2.2 4.7-4.7 4.7h-11.5c-2.6 0-4.7-2.2-4.7-4.7v-35.4c0-2.6 2.1-4.7 4.7-4.7h11.5zm-3 7.7h-5.5v29.5h5.5v-29.5zM-55.6 374.1h7.6V419h-7.6v-22.1l-3.1 11.4h-7.5l-3-11.4V419h-7.6v-44.9h7.6l6.8 21.7 6.8-21.7zM-23.3 411.2v7.8h-20.9v-44.9h20.9v7.7h-13.3v10.8H-26v7.7h-10.6v10.9h13.3z"/></svg>