<?xml version="1.0" encoding="utf-8"?>
<!-- Generator: Adobe Illustrator 19.0.0, SVG Export Plug-In . SVG Version: 6.00 Build 0)  -->
<svg version="1.1" id="Layer_1" xmlns="http://www.w3.org/2000/svg" xmlns:xlink="http://www.w3.org/1999/xlink" x="0px" y="0px"
	 viewBox="-268 360.7 74.7 72.3" style="enable-background:new -268 360.7 74.7 72.3;" xml:space="preserve">
<style type="text/css">
	.st0{fill:#81B3D2;}
</style>
<g>
	<path class="st0" d="M-238.5,404.5v0.5v18.1v1.5v1.5h16v-2v-0.9V405v-0.5v-2.4h-16C-238.5,402.1-238.5,404.5-238.5,404.5z
		 M-225.4,423.1h-10.1V405h10.1V423.1z"/>
	<path class="st0" d="M-195.4,400.1l2.1-2.1l-9.9-9.9v-27h-0.9h-2h-7.9l0,0h-2.9v13.2l-13.6-13.6L-268,398l2.1,2.1l7.8-7.8v37.8
		h-3.9v2.9h63.9v-2.9h-5.1v-37.8L-195.4,400.1z M-214.1,364.1h7.9v21.1l-7.9-7.9V364.1z M-206.1,430.1h-49v-40.7l24.5-24.5
		l24.5,24.5V430.1z"/>
	<path class="st0" d="M-238.2,387.9c0,4.3,3.5,7.8,7.7,7.8s7.8-3.5,7.8-7.8s-3.5-7.8-7.8-7.8S-238.2,383.6-238.2,387.9z
		 M-230.5,382.9c2.7,0,5,2.2,5,5s-2.2,5-5,5c-2.7,0-5-2.2-5-5S-233.2,382.9-230.5,382.9z"/>
	<rect x="-251.1" y="402.1" class="st0" width="3" height="3.9"/>
	<rect x="-245.2" y="402.1" class="st0" width="3" height="3.9"/>
	<rect x="-251.1" y="408.1" class="st0" width="3" height="3.9"/>
	<rect x="-245.2" y="408.1" class="st0" width="3" height="3.9"/>
	<rect x="-219.2" y="402.1" class="st0" width="3" height="3.9"/>
	<rect x="-213.2" y="402.1" class="st0" width="3" height="3.9"/>
	<rect x="-219.2" y="408.1" class="st0" width="3" height="3.9"/>
	<rect x="-213.2" y="408.1" class="st0" width="3" height="3.9"/>
</g>
</svg>
