<?xml version="1.0" encoding="utf-8"?>
<!-- Generator: Adobe Illustrator 19.0.0, SVG Export Plug-In . SVG Version: 6.00 Build 0)  -->
<svg version="1.1" id="Layer_1" xmlns="http://www.w3.org/2000/svg" xmlns:xlink="http://www.w3.org/1999/xlink" x="0px" y="0px"
	 viewBox="-295 386.1 19.9 21.9" style="enable-background:new -295 386.1 19.9 21.9;" xml:space="preserve">
<style type="text/css">
	.st0{fill:#81B3D2;}
</style>
<g>
	<path class="st0" d="M-278,388.1h-2.1v-2h-2v2h-6v-2h-2v2h-2.1c-1.6,0-2.8,1.3-2.8,2.8v14.2c0,1.6,1.3,2.8,2.8,2.8h14.2
		c1.6,0,2.8-1.3,2.8-2.8v-14.2C-275.1,389.4-276.4,388.1-278,388.1z M-277.1,405.2c0,0.5-0.4,0.8-0.8,0.8h-14.2
		c-0.5,0-0.8-0.4-0.8-0.8v-14.2c0-0.5,0.4-0.8,0.8-0.8h14.2c0.5,0,0.8,0.4,0.8,0.8V405.2z"/>
	<rect x="-290.1" y="393" class="st0" width="2" height="2"/>
	<rect x="-282" y="393" class="st0" width="2" height="2"/>
	<rect x="-286.1" y="393" class="st0" width="2" height="2"/>
	<rect x="-290.1" y="397" class="st0" width="2" height="2"/>
	<rect x="-282" y="397" class="st0" width="2" height="2"/>
	<rect x="-286.1" y="397" class="st0" width="2" height="2"/>
	<rect x="-290.1" y="401" class="st0" width="2" height="2"/>
	<rect x="-282" y="401" class="st0" width="2" height="2"/>
	<rect x="-286.1" y="401" class="st0" width="2" height="2"/>
</g>
</svg>
