<?xml version="1.0" encoding="utf-8"?>
<!-- Generator: Adobe Illustrator 19.0.0, SVG Export Plug-In . SVG Version: 6.00 Build 0)  -->
<svg version="1.1" id="Layer_1" xmlns="http://www.w3.org/2000/svg" xmlns:xlink="http://www.w3.org/1999/xlink" x="0px" y="0px"
	 viewBox="-296 389.3 17.5 14.7" style="enable-background:new -296 389.3 17.5 14.7;" xml:space="preserve">
<style type="text/css">
	.st0{fill:#FFFFFF;}
</style>
<g id="W6EeEF_1_">
	<g>
		<path class="st0" d="M-284.7,389.5c1.7-0.5,3.1,0.3,3.7,1.1c0.7-0.2,1.4-0.5,2.1-0.7c0,0.8-0.5,1.5-0.9,1.7
			c0.7,0.2,1.3-0.5,1.3-0.5c-0.2,1-1,1.7-1.6,2c-0.2,6.6-3.3,11-10.4,10.8c-0.5,0,0.1,0-0.5,0c-0.4,0-4.3-0.5-5-1.8
			c2.3,0.2,4-0.4,4.8-1.1c-1-0.3-2.8-0.5-3.1-2.9c0.4,0.1,0.6,0.2,1.2,0.1c-1.2-0.8-2.6-1.5-2.5-3.7c0.3,0.3,1.1,0.5,1.4,0.5
			c-0.7-0.2-2-3.3-0.9-4.8c1.9,1.8,3.8,3.5,7.4,3.7C-287.5,391.6-286.5,390.1-284.7,389.5z"/>
	</g>
</g>
</svg>
