<?xml version="1.0" encoding="utf-8"?>
<!-- Generator: Adobe Illustrator 19.0.0, SVG Export Plug-In . SVG Version: 6.00 Build 0)  -->
<svg version="1.1" id="Layer_1" xmlns="http://www.w3.org/2000/svg" xmlns:xlink="http://www.w3.org/1999/xlink" x="0px" y="0px"
	 viewBox="-274 359.9 63 75.1" style="enable-background:new -274 359.9 63 75.1;" xml:space="preserve">
<path d="M-214,382.1h-0.1h-24.3c13.6-6.8,14.7-11.1,14.2-13.5c-1.1-3.9-5.6-6.9-9.8-5.3c-5.5,2.1-7,10.3-8.5,16.2
	c-1.9-6-3.7-13.6-8-17.5c-1.2-1.1-3-2.2-5.7-2c-4,0.4-9.7,5.3-7.3,10.8c2.2,5.3,9.5,8.7,14.4,11.4h-21.8h-0.3
	c-1.6,0-2.8,1.3-2.8,2.8v11.2c0,1.6,1.3,2.8,2.8,2.8h0.3v33.1v2.4v0.5h57v-0.5v-2.4V399h0.1c1.6,0,2.8-1.3,2.8-2.8V385
	C-211.2,383.4-212.5,382.1-214,382.1z M-232.4,365.8c2.1-0.3,4.9,1.3,5.2,3.2c0.4,2.7-3.3,5.2-5,6.3c-2.5,1.7-4.9,2.6-7.2,4
	C-238.6,375.7-236.9,366.5-232.4,365.8z M-255,375.6c-2.2-1.5-6.4-4.4-6.3-7.7c0.1-3.6,5.7-6.5,8.7-3.8c3.8,3.3,5.6,11,7,16.4
	C-248.8,379-251.8,377.7-255,375.6z M-249.1,432.1h-19.1V399h19.1V432.1z M-249.1,396h-22.1v-10.9h22.1V396z M-239.1,396v3v33.1
	h-7.1V399v-3v-10.9h7.1V396z M-217.1,432.1h-19.1V399h19.1V432.1z M-214.2,396h-21.9v-10.9h21.9V396z"/>
</svg>
