<?xml version="1.0" encoding="utf-8"?>
<!-- Generator: Adobe Illustrator 19.0.0, SVG Export Plug-In . SVG Version: 6.00 Build 0)  -->
<svg version="1.1" id="Layer_1" xmlns="http://www.w3.org/2000/svg" xmlns:xlink="http://www.w3.org/1999/xlink" x="0px" y="0px"
	 viewBox="-292 380.2 26.1 33.8" style="enable-background:new -292 380.2 26.1 33.8;" xml:space="preserve">
<style type="text/css">
	.st0{fill:#BDBBBC;}
</style>
<g>
	<path class="st0" d="M-279,380.2l-13,1.5v24.5l13,7.8v0l13-7.9v-24.4L-279,380.2z M-268,404.9l-11,6.6v-7.4l-6.4-2.9v0l6.4-2.8v0h0
		v0l6.4,2.8v0l0,0v-1.2l-6.4-2.8l0,0l0,0v0h0v0l-6.4,2.8v-1.2l0,0l5.8-2.6l-1.4-0.6l-4.5,2v-1.2l3.1-1.4l-1.4-0.6l-1.7,0.7v-1.2
		l0.3-0.1l-3.7-1.7l9.8-4.2v-5.6l11,1.3C-268,383.6-268,404.9-268,404.9z"/>
	<polygon class="st0" points="-272.6,397.6 -277,395.6 -278.4,396.2 -272.6,398.8 	"/>
	<polygon class="st0" points="-272.6,395.1 -274.3,394.4 -275.7,395 -272.6,396.4 	"/>
</g>
</svg>
