<?xml version="1.0" encoding="utf-8"?>
<!-- Generator: Adobe Illustrator 19.0.0, SVG Export Plug-In . SVG Version: 6.00 Build 0)  -->
<svg version="1.1" id="Layer_1" xmlns="http://www.w3.org/2000/svg" xmlns:xlink="http://www.w3.org/1999/xlink" x="0px" y="0px"
	 viewBox="-292 382.1 26 29.9" style="enable-background:new -292 382.1 26 29.9;" xml:space="preserve">
<path d="M-292,382.1h26V412l-13-4.8l-13,4.8V382.1z M-271.8,400c-0.2,0-0.5,0-0.8,0s-0.5-0.1-0.6-0.1c-0.2-0.1-0.4-0.3-0.5-0.5
	s-0.2-0.5-0.2-0.9s0-1.2,0.1-2.5c0-1.2,0.1-2.3,0.1-3.2c0-0.9-0.1-1.6-0.4-2.1s-0.7-0.9-1.2-1.2c-0.5-0.3-1.1-0.5-1.8-0.6
	c-0.6-0.1-1.4-0.1-2.1-0.1c-0.6,0-1.2,0.1-1.8,0.2c-0.7,0.1-1.2,0.3-1.7,0.6c-0.5,0.2-0.9,0.5-1.3,0.9s-0.5,0.8-0.5,1.2
	c0,0.5,0.2,0.9,0.5,1.3c0.3,0.3,0.9,0.5,1.5,0.5c0.5,0,0.8,0,1.1-0.1c0.2-0.1,0.4-0.2,0.6-0.4c0.1-0.1,0.2-0.3,0.3-0.5
	c0.1-0.2,0.1-0.4,0.1-0.5c0-0.3-0.1-0.6-0.2-1c-0.1-0.3-0.2-0.6-0.2-0.7c0.1-0.1,0.3-0.2,0.6-0.3c0.2-0.1,0.5-0.2,0.9-0.2
	s0.7,0.1,1,0.3c0.2,0.2,0.4,0.4,0.5,0.7c0.1,0.2,0.2,0.5,0.2,0.8s0,0.6,0,0.8v1.2c-0.5,0.2-1.2,0.5-2.2,0.8s-1.9,0.6-2.6,0.8
	c-0.4,0.1-0.7,0.3-1,0.5s-0.6,0.4-0.8,0.6c-0.3,0.3-0.5,0.6-0.6,1s-0.2,0.8-0.2,1.3c0,0.9,0.3,1.6,1,2.2s1.5,0.8,2.4,0.8
	c0.6,0,1.1,0,1.5-0.1s0.7-0.2,1.1-0.4c0.3-0.1,0.6-0.3,0.8-0.5c0.3-0.2,0.5-0.4,0.8-0.7h0.1c0.2,0.5,0.5,1,0.9,1.3
	c0.5,0.3,1.2,0.4,2.2,0.4c0.5,0,1-0.1,1.5-0.2s0.9-0.3,1.3-0.4L-271.8,400L-271.8,400z M-277.9,398.7c-0.2,0.3-0.5,0.5-0.8,0.7
	s-0.6,0.3-1.1,0.3c-0.4,0-0.8-0.1-1.1-0.4c-0.3-0.3-0.4-0.7-0.4-1.4c0-0.5,0.1-0.9,0.3-1.2c0.2-0.3,0.4-0.6,0.7-0.9
	c0.3-0.2,0.6-0.4,1.1-0.6c0.4-0.2,0.9-0.4,1.3-0.5V398.7z"/>
</svg>
