<?xml version="1.0" encoding="utf-8"?>
<!-- Generator: Adobe Illustrator 19.0.0, SVG Export Plug-In . SVG Version: 6.00 Build 0)  -->
<svg version="1.1" id="Layer_1" xmlns="http://www.w3.org/2000/svg" xmlns:xlink="http://www.w3.org/1999/xlink" x="0px" y="0px"
	 viewBox="-158 357.6 293.8 79.4" style="enable-background:new -158 357.6 293.8 79.4;" xml:space="preserve">
<style type="text/css">
	.st0{fill:#FFFFFF;}
</style>
<g>
	<path class="st0" d="M-124.6,374.7c7.7-2.6,8.2-12.2,0.7-12.2c-2.1,0-4.6,1.5-6.3,4.4l-10.2,17.7c-0.5,0.8-0.9,1.5-1.5,2.2
		c-2.6-3.6-1.9-9,1.8-11.4l-1.5-1.9c-7.9,5.1-5.6,19.7,7.7,19.7C-122.5,393.1-117.3,379.5-124.6,374.7z M-134,390.2
		c-2.3,0-4-0.5-5.5-1.3c0.7-0.8,1.3-1.7,1.9-2.7l6.4-11.1l1,0.1C-121.2,377.1-124.8,390.2-134,390.2z M-129.9,372.9l3.1-5.3
		c2.8-4.8,6.3-2,4.4,1.6C-123.9,372-126,372.8-129.9,372.9z"/>
	<path class="st0" d="M-92.5,386.9c-0.6,2.2,0.6,4.1,3.1,4.1c1.5,0,3.4-1,5.3-2.5c0.2,1.5,1.3,2.5,3.3,2.5c2,0,4.2-1.4,6.4-3.4
		c-0.4,2,0.5,3.4,2.4,3.4c2.1,0,4.4-1.9,6.2-3.6c-0.4,2,0.8,3.6,3.2,3.6c3.1,0,6.7-3.4,9.9-7c0,0-0.1-0.1-0.1-0.2
		c2.1-2.4,3.9-5,5.3-6.8c-1.5,3.9-0.7,11-4.3,11c-1.3,0-1.8-1.4-1.8-1.4l-2.4,1.2c0,0,0.7,3.1,4.2,3.1c0.4,0,0.7,0,1.1-0.1
		c0,0,0.1,0,0.1,0c2.8-0.4,5.6-2.1,7.9-4.2c0.1,2.5,2,4.3,5.1,4.3c4.3,0,8.6-3.4,11.7-7c-0.3-0.5-0.9-1.1-1.4-1.3l-0.3,0.3
		c-2.7,3.2-6.2,5.7-8.9,5.7c-2.3,0-3.7-1.5-2-4.5l0.4-0.7c2.4,1,7,0.5,9.9-4.4l0.5-0.9c2-3.5,0.1-6.1-3-6.1c-3.1,0-5.5,1.6-7.1,4.4
		l-3.7,6.3c0,0-0.1,0-0.1,0l-0.3,0.3c-1.4,1.6-3.1,3.1-4.6,4.1c1.2-3.6,0.9-9.2,3.3-14l-2.8-1.5c-1.6,2.2-5,7.1-8.4,11.1
		c0,0,0.1,0.1,0.1,0.1l-0.1,0.2c-2.7,3.2-5.4,5.7-7.1,5.7c-0.8,0-1.3-0.6-0.4-2.1l8.1-14.2h-3.8l-6.7,11.8c-2.9,2.6-5.1,4.1-5.8,3.8
		c-0.9-0.4,0-1.8,0.5-2.6l7.4-12.9H-66l-6,10.4c-0.1-0.1-0.2-0.1-0.3-0.2l-0.3,0.3c-2.7,3.2-5.4,5.7-7.1,5.7c-0.8,0-1.3-0.6-0.4-2.1
		l6.1-10.7h-2.2c0.1-1.6-1.5-3.8-4-3.8c-2,0-4.9,1.6-6.5,4.4l-3.8,6.6c-0.2-0.2-0.4-0.3-0.6-0.4l-0.3,0.3c-2.7,3.2-6.2,5.7-8.9,5.7
		c-2.3,0-3.7-1.5-2-4.5l3.9-6.8c2.2-3.8,6.1-3.1,3.8,0.8l-0.5,0.9h3.1l0.5-0.9c2-3.5,0.1-6.1-3-6.1c-3.1,0-5.5,1.6-7.1,4.4l-3.8,6.5
		c-0.1-0.1-0.2-0.1-0.3-0.2l-0.3,0.3c-2.7,3.2-6.2,5.7-8.9,5.7c-2.3,0-3.7-1.5-2-4.5l0.4-0.7c2.4,1,7,0.5,9.9-4.4l0.5-0.9
		c2-3.5,0.1-6.1-3-6.1c-3.1,0-5.5,1.6-7.1,4.4l-4,6.8c-2.4,4-0.3,7.8,4.2,7.8c3.3,0,6.7-2,9.4-4.6c-0.1,2.6,1.9,4.6,5.1,4.6
		C-98.2,391-95.2,389.3-92.5,386.9z M-34.5,377.4c2.2-3.8,6.1-3.1,3.8,0.8l-0.5,0.9c-1.8,3.1-4.3,3-5.7,2.5L-34.5,377.4z
		 M-88.7,386.6l5.3-9.2c2-3.5,6.1-2.6,4.2,0.8l-3,5.2c-2.3,3.6-4.6,5.3-6.1,5.3C-89.1,388.7-89.5,388.1-88.7,386.6z M-112.8,377.4
		c2.2-3.8,6.1-3.1,3.8,0.8l-0.5,0.9c-1.8,3.1-4.3,3-5.7,2.5L-112.8,377.4z"/>
	<path class="st0" d="M15.7,391c4.3,0,8.6-3.4,11.7-7c-0.3-0.5-0.9-1.1-1.4-1.3l-0.3,0.3c-2.7,3.2-6.2,5.7-8.9,5.7
		c-2.3,0-3.7-1.5-2-4.5l0.4-0.7c2.4,1,7,0.5,9.9-4.4l0.5-0.9c2-3.5,0.1-6.1-3-6.1c-3.1,0-5.5,1.6-7.1,4.4l-3.7,6.3
		c0,0-0.1,0-0.1-0.1l-0.3,0.3c-2.7,3.2-5.4,5.7-7.1,5.7c-0.8,0-1.3-0.6-0.4-2.1l5.5-9.6c1.6-2.9,0.1-5-2-5c-1.6,0-3.4,0.9-5.3,2.9
		l6.1-10.5H4.4l-10.7,18.6c-0.1-0.1-0.3-0.2-0.4-0.3L-7,383c-2.7,3.2-5.4,5.7-7.1,5.7c-0.8,0-1.3-0.6-0.4-2.1l8.1-14.2h3.1l1.1-1.8
		h-3.1l3.6-6.2h-3.8l-3.6,6.2h-3.4l-1.1,1.8h3.5l-7.6,13.2c-1.6,2.8-0.5,5.4,2.6,5.4c1.9,0,3.9-1.2,6-3l-1.5,2.6h3.8l5.8-10
		c5.8-7.3,8.4-6.4,6.8-3.6l-4.9,8.6c-1.6,2.8-0.5,5.4,2.6,5.4c2.3,0,4.9-1.8,7.3-4.2C10.7,389.2,12.6,391,15.7,391z M18.8,377.4
		c2.2-3.8,6.1-3.1,3.8,0.8l-0.5,0.9c-1.8,3.1-4.3,3-5.7,2.5L18.8,377.4z"/>
	<path class="st0" d="M130.8,382.7l-0.3,0.3c-2.7,3.2-5.4,5.7-7.1,5.7c-0.8,0-1.3-0.6-0.4-2.1l12.8-22.2H132l-5.6,9.6
		c-0.7-1.1-1.9-2-3.5-2c-2,0-4.9,1.6-6.5,4.4l-3.7,6.4c-0.1,0-0.2-0.1-0.2-0.1l-0.3,0.3c-2.7,3.2-5.4,5.7-7.1,5.7
		c-0.8,0-1.3-0.6-0.4-2.1l5.5-9.6c1.6-2.9,0.1-5-2-5c-1.6,0-3.4,0.9-5.3,2.8l1.4-2.5h-3.8l-6.1,10.5c-0.1-0.1-0.2-0.2-0.4-0.2
		l-0.3,0.3c-2.7,3.2-5.4,5.7-7.1,5.7c-0.8,0-1.3-0.6-0.4-2.1l6.1-10.7h-2.2c0.1-1.6-1.5-3.8-4-3.8c-2,0-4.9,1.6-6.5,4.4l-3.7,6.3
		L76,383c-2.7,3.2-5.4,5.7-7.1,5.7c-0.8,0-1.3-0.6-0.4-2.1l3.8-6.6c1.3-2.3,0.7-3.6-0.5-5.1l-2.1-2.6c-0.5-0.7-0.5-1.5,0.2-2.2
		l-2-2.2c-2.2,1.9-2.3,4.1-1,5.8l0.3,0.4c-1.7,2.4-3.9,5.6-6.4,8.5c0.1,0.1,0.2,0.2,0.3,0.3c-3.1,3.6-5.8,5.9-8.8,7.2l4.8-8.2h-3.8
		l-0.4,0.7c-2,3.5-4.3,6.1-7.3,6.1c-2.6,0-3.1-2.6-0.8-6.5l1.1-1.9c0.7,0.1,1.4,0.2,2.2,0.2c13.5,0,20-18.1,8.1-18.1
		c-2.1,0-4.6,1.5-6.3,4.4L44,377.1c-2.2-1.2-3.4-3.3-3.4-5.4c0-1.8,0.8-3.5,2.4-4.8l-1.2-2.2c-2.7,1.9-3.9,4.5-3.9,7.1
		c0,3,1.7,5.9,4.8,7.5l-1.1,2c-2.7,4.6-2.2,9.7,3.2,9.7c1.6,0,3-0.5,4.1-1.2l-1,1.7c-5.1,1.6-8.3,3.6-8.3,6.5c0,3.6,5.6,4.4,8.3-0.3
		l2.9-5c3.9-1.2,7.8-3.9,12-8.8c-0.1-0.1-0.1-0.2-0.2-0.4c1.7-2,3.1-3.9,6-7.8l0.5,0.6c0.5,0.6,0.7,1.4,0.2,2.2l-4,7
		c-1.6,2.8-0.5,5.4,2.6,5.4c1.9,0,4-1.2,6-3c0,1.7,1.1,3,3.3,3c1.5,0,3.4-1,5.3-2.5c0.2,1.5,1.4,2.5,3.3,2.5c1.8,0,3.8-1.1,5.7-2.8
		l-1.4,2.4h3.8l5.8-10.1c5.8-7.3,8.4-6.3,6.7-3.5l-4.9,8.6c-1.6,2.8-0.5,5.4,2.6,5.4c2,0,4.2-1.4,6.4-3.3c-0.2,1.9,1,3.3,3.3,3.3
		c1.5,0,3.4-1,5.3-2.5c0.2,1.5,1.4,2.5,3.3,2.5c3.1,0,6.7-3.4,9.9-7C131.9,383.5,131.3,382.9,130.8,382.7z M52.8,368.5
		c1.1-1.9,2.4-2.8,3.4-2.8c6,0,1.8,12.3-8.1,12.3h-0.8L52.8,368.5z M44.7,397.1c-0.8,1.4-2.1,1.2-2.1,0.2c0-1,0.9-2.1,3.8-3.2
		L44.7,397.1z M84.4,383.3c-2.3,3.6-4.6,5.3-6.1,5.3c-0.8,0-1.3-0.6-0.4-2.1l5.3-9.2c2-3.5,6.1-2.6,4.2,0.8L84.4,383.3z
		 M121.1,383.1c-2.3,3.8-4.6,5.5-6.2,5.5c-0.8,0-1.3-0.6-0.4-2.1l5.3-9.2c2-3.5,6.1-2.6,4.2,0.8h0L121.1,383.1z"/>
	<path class="st0" d="M4.1,418.7L3.8,419c-2.7,3.2-5.4,5.7-7.1,5.7c-0.8,0-1.3-0.6-0.4-2.1l5.5-9.6c1.6-2.9,0.1-5-2-5
		c-1.6,0-3.4,0.9-5.3,2.8l1.4-2.5h-3.8L-14,419c-0.2-0.1-0.3-0.2-0.5-0.3l-0.3,0.3c-1.7,1.9-3.8,2.8-5.7,2.8l3.6-6.2
		c2.3-4,0.2-7.7-3.4-7.7c-2.9,0-5.2,1.2-7.4,5l-1.9,3.2l-1.6,2.8c-0.1-0.1-0.2-0.1-0.3-0.2l-0.3,0.3c-3.1,3.6-5.8,5.9-8.8,7.2
		l10.4-17.8h-3.8l-6.7,11.7c-2.9,2.7-5.2,4.2-5.9,3.9c-0.9-0.4,0-1.8,0.5-2.6l7.4-12.9h-3.8l-6.1,10.5c-0.1-0.1-0.2-0.1-0.3-0.2
		l-0.3,0.3c-2.7,3.2-5.4,5.7-7.1,5.7c-0.8,0-1.3-0.6-0.4-2.1l5.5-9.6c1.6-2.9,0.1-5-2-5c-1.6,0-3.4,0.9-5.3,2.8l1.4-2.5h-3.8
		l-6.1,10.5c-0.1-0.1-0.2-0.2-0.4-0.2l-0.3,0.3c-2.7,3.2-5.4,5.7-7.1,5.7c-0.8,0-1.3-0.6-0.4-2.1l6.1-10.7H-71
		c0.1-1.6-1.5-3.8-4-3.8c-2,0-4.9,1.6-6.5,4.4l-3.9,6.8c-0.3-0.2-0.6-0.4-0.8-0.5l-0.3,0.3c-2.7,3.2-6.1,5.7-9.8,5.7
		c-2.6,0-4.2-2.6-1.9-6.5l1.1-1.9c0.7,0.1,1.4,0.2,2.2,0.2c4,0,8.6-2.1,11.6-7.3c1.1-1.9,1.5-3.6,1.5-5.1c0-3.4-2.2-5.7-5-5.7
		c-2.1,0-4.6,1.5-6.3,4.4l-5.9,10.2c-2.2-1.2-3.4-3.3-3.4-5.4c0-1.8,0.8-3.5,2.4-4.8l-1.2-2.2c-2.7,1.9-3.9,4.5-3.9,7.1
		c0,3,1.7,5.9,4.8,7.5l-1.1,2c-2.7,4.6-1.1,9.7,4.3,9.7c4.2,0,7.4-1.9,10-4.4c-0.8,2.4,0.4,4.4,3.1,4.4c1.5,0,3.4-1,5.3-2.5
		c0.2,1.5,1.3,2.5,3.3,2.5c1.8,0,3.8-1.1,5.7-2.8l-1.4,2.4h3.8l5.8-10.1c5.8-7.3,8.4-6.3,6.7-3.5l-4.9,8.6c-1.6,2.8-0.5,5.4,2.6,5.4
		c2,0,4.3-1.4,6.5-3.4c-0.5,2.1,0.5,3.4,2.4,3.4c1.8,0,3.9-1.5,5.6-3.1l-2.1,3.6c-5.1,1.5-8.4,3.6-8.4,6.5c0,3.6,5.6,4.4,8.3-0.3
		l2.9-5c3.2-1,6.3-3,9.6-6.2c-0.5,5.3,6.5,6.5,10.8,1.1h0.8c1.4,0,3.3-0.5,5-1.5l-2.5,4.4h3.8l5.8-10.1c5.8-7.3,8.4-6.3,6.7-3.5
		l-4.9,8.6c-1.6,2.8-0.5,5.4,2.6,5.4c3.1,0,6.7-3.4,9.9-7C5.2,419.5,4.6,418.9,4.1,418.7z M-90.3,404.5c1.1-1.9,2.4-2.8,3.4-2.8
		c1.4,0,2.1,0.9,2.1,2.3c0,3.5-4.3,9.9-10.2,9.9h-0.8L-90.3,404.5z M-77,419.3c-2.3,3.6-4.6,5.3-6.1,5.3c-0.8,0-1.3-0.6-0.4-2.1
		l5.3-9.2c2-3.5,6.1-2.6,4.2,0.8L-77,419.3z M-48.1,433.1c-0.8,1.4-2.1,1.2-2.1,0.2c0-1,0.9-2.1,3.8-3.2L-48.1,433.1z M-22.6,418.9
		h-0.2c-1.2,0-2.2,1-2.2,2.3c0,0.5,0.1,0.9,0.4,1.3l0,0.1c-1.8,3.1-6.1,2.5-3.9-1.5l2.9-5l1.8-3.1c2.7-4.5,6.3-2.7,4,1.2
		L-22.6,418.9z"/>
	<path class="st0" d="M92,420c-0.2-0.6-0.9-1.2-1.4-1.3l-0.3,0.3c-1.4,1.6-3.1,3.1-4.6,4.1c1.2-3.6,0.9-9.2,3.3-14l-2.8-1.5
		c-1.6,2.2-5,7.1-8.4,11.1c0,0,0,0,0,0c0,0,0,0,0,0l-0.3,0.3c-2.7,3.2-5.4,5.7-7.1,5.7c-0.8,0-1.6-0.8-1.6-2.6v-1.6
		c2.7,0.3,5.5-1.4,7.3-4.5l1-1.8c3.5-6.1-2.2-8.1-6.1-4.5l5.4-9.4h-3.8l-10.8,18.8c-0.2-0.2-0.5-0.4-0.7-0.5l-0.3,0.3
		c-2.7,3.2-6.2,5.7-8.9,5.7c-2.3,0-3.7-1.5-2-4.5l3.9-6.8c2.2-3.8,6.1-3.1,3.8,0.8l-0.5,0.9h3.1l0.5-0.9c2-3.5,0.1-6.1-3-6.1
		c-3.1,0-5.5,1.6-7.1,4.4l-3.7,6.4c-0.1,0-0.2-0.1-0.2-0.1l-0.3,0.3c-2.7,3.2-5.4,5.7-7.1,5.7c-0.8,0-1.3-0.6-0.4-2.1l8.1-14.2h-3.8
		l-6.7,11.8c-2.9,2.6-5.1,4.1-5.8,3.8c-0.9-0.4,0-1.8,0.5-2.6l7.4-12.9h-3.8l-7.4,12.7c-0.8,0.7-1.7,1.4-2.4,2
		c1.2-3.6,0.9-9.2,3.3-14l-2.8-1.5c-1.6,2.2-10.3,13.8-13.7,17.8c0.3,0.5,0.9,0.9,1.4,1.3c2.2-2.5,9.4-11.8,10.7-13.6
		c-1.5,3.9-0.7,11-4.3,11c-1.3,0-1.8-1.4-1.8-1.4l-2.4,1.2c0,0,0.7,3.1,4.2,3.1c0.4,0,0.7,0,1.1-0.1c0,0,0.1,0,0.1,0
		c1.9-0.3,3.8-1.1,5.6-2.4c0,1.5,0.9,2.5,2.5,2.5c2.1,0,4.4-1.9,6.2-3.6c-0.4,2,0.8,3.6,3.2,3.6c2.4,0,5-1.9,7.5-4.4
		c0,2.5,2,4.4,5.1,4.4c3.1,0,6.1-1.7,8.8-4l-2.1,3.7h3.8l4.3-7.5v3c0,3.2,0.6,4.9,3.7,4.9c3.1,0,6.7-3.4,9.9-7c0,0,0,0,0,0
		c0,0,0,0,0,0c2.2-2.5,4-5.1,5.4-6.9c-1.5,3.9-0.7,11-4.3,11c-1.3,0-1.8-1.4-1.8-1.4l-2.4,1.2c0,0,0.7,3.1,4.2,3.1
		c0.4,0,0.7,0,1.1-0.1c0,0,0.1,0,0.1,0C85.3,426.4,89.1,423.3,92,420z M66.8,417l1.1-1.9c4.4-6.1,7.4-4.4,6-2.1l-1.8,3.1
		C70.9,418.1,67.6,419.5,66.8,417z"/>
	<path class="st0" d="M91.8,422.6c-1.2,0-2.2,1-2.2,2.2c0,1.2,0.9,2.2,2.2,2.2s2.2-0.9,2.2-2.2C94,423.6,93.1,422.6,91.8,422.6z"/>
	<polygon class="st0" points="92,421.1 95.8,421.1 107.7,400.4 103.9,400.4 	"/>
</g>
<g>
	<path class="st0" d="M-152.3,364.5c0,0.3-0.1,0.6-0.2,0.9c-0.1,0.3-0.3,0.6-0.5,0.8c-0.2,0.2-0.5,0.4-0.8,0.6
		c-0.3,0.1-0.7,0.2-1.1,0.2c-0.5,0-0.9-0.1-1.3-0.3c-0.4-0.2-0.8-0.4-1.1-0.7c-0.2-0.3-0.4-0.6-0.6-1c-0.1-0.4-0.2-0.8-0.2-1.3
		c0-0.9,0.2-1.6,0.5-2.4c0.3-0.7,0.7-1.4,1.3-1.9c0.2-0.2,0.5-0.5,0.8-0.7c0.3-0.2,0.6-0.4,0.9-0.5c0.3-0.1,0.5-0.3,0.7-0.4
		c0.2-0.1,0.3-0.1,0.4-0.2l1.4,2c-0.2,0.1-0.5,0.2-0.8,0.4c-0.3,0.1-0.6,0.3-0.9,0.5c-0.3,0.2-0.5,0.5-0.7,0.8
		c-0.2,0.3-0.3,0.6-0.3,1c0.7,0,1.2,0.2,1.7,0.6C-152.5,363.2-152.3,363.8-152.3,364.5z M-144.4,364.5c0,0.3-0.1,0.6-0.2,0.9
		c-0.1,0.3-0.3,0.6-0.5,0.8c-0.2,0.2-0.5,0.4-0.8,0.6c-0.3,0.1-0.7,0.2-1.1,0.2c-0.5,0-0.9-0.1-1.3-0.3s-0.8-0.4-1.1-0.7
		c-0.2-0.3-0.4-0.6-0.6-1s-0.2-0.8-0.2-1.3c0-0.9,0.2-1.6,0.5-2.4c0.3-0.7,0.7-1.4,1.3-1.9c0.2-0.2,0.5-0.5,0.8-0.7
		c0.3-0.2,0.6-0.4,0.9-0.5c0.3-0.1,0.5-0.3,0.7-0.4c0.2-0.1,0.3-0.1,0.4-0.2l1.4,2c-0.2,0.1-0.5,0.2-0.8,0.4
		c-0.3,0.1-0.6,0.3-0.9,0.5c-0.3,0.2-0.5,0.5-0.7,0.8c-0.2,0.3-0.3,0.6-0.3,1c0.7,0,1.2,0.2,1.7,0.6
		C-144.6,363.2-144.4,363.8-144.4,364.5z"/>
</g>
<g>
	<path class="st0" d="M120.8,423.4c0-0.3,0.1-0.6,0.2-0.9c0.1-0.3,0.3-0.6,0.5-0.8c0.2-0.2,0.5-0.4,0.8-0.6c0.3-0.1,0.7-0.2,1.1-0.2
		c0.5,0,0.9,0.1,1.3,0.3c0.4,0.2,0.8,0.4,1.1,0.7c0.2,0.3,0.4,0.6,0.6,1c0.1,0.4,0.2,0.8,0.2,1.3c0,0.9-0.2,1.6-0.5,2.4
		c-0.3,0.7-0.7,1.4-1.3,1.9c-0.2,0.2-0.5,0.5-0.8,0.7c-0.3,0.2-0.6,0.4-0.9,0.5c-0.3,0.1-0.5,0.3-0.7,0.4c-0.2,0.1-0.3,0.1-0.4,0.2
		l-1.4-2c0.2-0.1,0.5-0.2,0.8-0.4s0.6-0.3,0.9-0.5c0.3-0.2,0.5-0.5,0.7-0.8c0.2-0.3,0.3-0.6,0.3-1c-0.7,0-1.2-0.2-1.7-0.6
		C121,424.7,120.8,424.2,120.8,423.4z M112.9,423.4c0-0.3,0.1-0.6,0.2-0.9c0.1-0.3,0.3-0.6,0.5-0.8s0.5-0.4,0.8-0.6
		c0.3-0.1,0.7-0.2,1.1-0.2c0.5,0,0.9,0.1,1.3,0.3c0.4,0.2,0.8,0.4,1.1,0.7c0.2,0.3,0.4,0.6,0.6,1c0.1,0.4,0.2,0.8,0.2,1.3
		c0,0.9-0.2,1.6-0.5,2.4c-0.3,0.7-0.7,1.4-1.3,1.9c-0.2,0.2-0.5,0.5-0.8,0.7c-0.3,0.2-0.6,0.4-0.9,0.5c-0.3,0.1-0.5,0.3-0.7,0.4
		c-0.2,0.1-0.3,0.1-0.4,0.2l-1.4-2c0.2-0.1,0.5-0.2,0.8-0.4c0.3-0.1,0.6-0.3,0.9-0.5c0.3-0.2,0.5-0.5,0.7-0.8c0.2-0.3,0.3-0.6,0.3-1
		c-0.7,0-1.2-0.2-1.7-0.6C113.2,424.7,112.9,424.2,112.9,423.4z"/>
</g>
</svg>
