<svg id="Layer_1" xmlns="http://www.w3.org/2000/svg" viewBox="-75 357.2 459.8 79.8"><style>.st0{fill:#fff}</style><path class="st0" d="M-30.5 378.9c-3.6-3-8.1-5-12.9-5-3.6 0-8.3 2.1-8.3 6.3 0 4.4 5.3 6.1 8.6 7.1l5 1.5c10.4 3.1 18.5 8.3 18.5 20.4 0 7.4-1.8 15.1-7.7 20.1-5.9 5-13.7 7-21.2 7-9.4 0-18.7-3.2-26.3-8.5l8.3-15.7c4.9 4.3 10.6 7.7 17.3 7.7 4.6 0 9.4-2.3 9.4-7.5 0-5.5-7.6-7.3-11.8-8.5-12.4-3.3-20.4-6.5-20.4-21 0-15.2 10.8-25.1 25.8-25.1 7.5 0 16.8 2.4 23.4 6.2l-7.7 15zM16.8 376.2v12.5h21.9v16.5H16.8V418H40v16.5H-2.6v-74.8H40v16.5H16.8zM54.4 359.7H82c20.8 0 38 16.4 38 37.4s-17.3 37.4-38 37.4H54.4v-74.8zM73.9 418h4.4c11.6 0 21.5-6.4 21.5-20.9 0-13.4-8.8-20.9-21.3-20.9h-4.6V418zM211.9 395.7c0 24.2-17.4 41.3-41.4 41.3s-41.4-17.1-41.4-41.3c0-22.6 19.9-38.5 41.4-38.5s41.4 15.9 41.4 38.5zm-62.6.1c0 12.9 9.5 22.3 21.1 22.3 11.6 0 21.1-9.4 21.1-22.3 0-10.3-9.5-19.8-21.1-19.8s-21.1 9.5-21.1 19.8zM222.2 359.7h19.5l35.6 45.8h.2v-45.8H297v74.8h-19.5l-35.6-45.9h-.2v45.9h-19.5v-74.8zM332.3 421.5l-5.2 13h-20.6l28.8-74.8h21.2l28.2 74.8H364l-4.9-13h-26.8zm13.6-38.7h-.2l-8 23.8h16.2l-8-23.8z"/></svg>